<svg width="50" height="50" viewBox="0 0 50 50" fill="none" xmlns="http://www.w3.org/2000/svg">
<path d="M23.3411 21.5409C20.8726 19.8566 18.5711 21.1423 16.6426 23.1223L20.9111 25.6938" stroke="#4F0C8C" stroke-width="1.25" stroke-linecap="round" stroke-linejoin="round"/>
<path d="M28.4595 26.6582C30.1438 29.1268 28.8581 31.4282 26.8781 33.3568L24.3066 29.0882" stroke="#4F0C8C" stroke-width="1.25" stroke-linecap="round" stroke-linejoin="round"/>
<path d="M20.9121 25.6814L24.3193 29.0885C27.045 27.4557 30.1435 25.8742 31.5578 24.4085C34.6178 21.3485 32.8435 17.1571 32.8435 17.1571C32.8435 17.1571 28.6521 15.3828 25.5921 18.4428C24.1264 19.8571 22.5321 22.9685 20.9121 25.6814Z" stroke="#4F0C8C" stroke-width="1.25" stroke-linecap="round" stroke-linejoin="round"/>
<path d="M29.5003 21.1431C29.8553 21.1431 30.1431 20.8553 30.1431 20.5003C30.1431 20.1452 29.8553 19.8574 29.5003 19.8574C29.1452 19.8574 28.8574 20.1452 28.8574 20.5003C28.8574 20.8553 29.1452 21.1431 29.5003 21.1431Z" stroke="#4F0C8C" stroke-width="1.25" stroke-linecap="round" stroke-linejoin="round"/>
<path d="M20.7311 31.9938C19.9854 32.7138 16.6426 33.3567 16.6426 33.3567C16.6426 33.3567 17.2854 30.0138 18.0054 29.2681C18.182 29.0786 18.3949 28.9267 18.6315 28.8213C18.868 28.7158 19.1234 28.6592 19.3824 28.6546C19.6413 28.65 19.8985 28.6977 20.1387 28.7947C20.3788 28.8917 20.597 29.036 20.7801 29.2192C20.9632 29.4023 21.1076 29.6204 21.2046 29.8606C21.3016 30.1007 21.3492 30.3579 21.3447 30.6169C21.3401 30.8758 21.2834 31.1312 21.178 31.3678C21.0726 31.6044 20.9206 31.8173 20.7311 31.9938V31.9938Z" stroke="#4F0C8C" stroke-width="1.25" stroke-linecap="round" stroke-linejoin="round"/>
</svg>
