<svg width="18" height="19" viewBox="0 0 18 19" fill="none" xmlns="http://www.w3.org/2000/svg">
<path d="M16.5 9.5C16.5 10.4849 16.306 11.4602 15.9291 12.3701C15.5522 13.2801 14.9997 14.1069 14.3033 14.8033C13.6069 15.4997 12.7801 16.0522 11.8701 16.4291C10.9602 16.806 9.98491 17 9 17C8.01509 17 7.03982 16.806 6.12987 16.4291C5.21993 16.0522 4.39314 15.4997 3.6967 14.8033C3.00026 14.1069 2.44781 13.2801 2.0709 12.3701C1.69399 11.4602 1.5 10.4849 1.5 9.5C1.5 8.51509 1.69399 7.53982 2.0709 6.62987C2.44781 5.71993 3.00026 4.89314 3.6967 4.1967C4.39314 3.50026 5.21993 2.94781 6.12988 2.5709C7.03982 2.19399 8.01509 2 9 2C9.98492 2 10.9602 2.19399 11.8701 2.5709C12.7801 2.94781 13.6069 3.50026 14.3033 4.1967C14.9997 4.89314 15.5522 5.71993 15.9291 6.62988C16.306 7.53982 16.5 8.51509 16.5 9.5L16.5 9.5Z" stroke="white" stroke-opacity="0.5" stroke-width="1.25"/>
<path d="M12 9.5C12 10.4849 11.9224 11.4602 11.7716 12.3701C11.6209 13.2801 11.3999 14.1069 11.1213 14.8033C10.8427 15.4997 10.512 16.0522 10.1481 16.4291C9.78407 16.806 9.39397 17 9 17C8.60603 17 8.21593 16.806 7.85195 16.4291C7.48797 16.0522 7.15726 15.4997 6.87868 14.8033C6.6001 14.1069 6.37913 13.2801 6.22836 12.3701C6.0776 11.4602 6 10.4849 6 9.5C6 8.51509 6.0776 7.53982 6.22836 6.62987C6.37913 5.71993 6.6001 4.89314 6.87868 4.1967C7.15726 3.50026 7.48797 2.94781 7.85195 2.5709C8.21593 2.19399 8.60603 2 9 2C9.39397 2 9.78407 2.19399 10.1481 2.5709C10.512 2.94781 10.8427 3.50026 11.1213 4.1967C11.3999 4.89314 11.6209 5.71993 11.7716 6.62988C11.9224 7.53982 12 8.51509 12 9.5L12 9.5Z" stroke="white" stroke-opacity="0.5" stroke-width="1.25"/>
<path d="M1.5 9.5H16.5" stroke="white" stroke-opacity="0.5" stroke-width="1.25" stroke-linecap="round"/>
</svg>
