<svg width="22" height="22" viewBox="0 0 22 22" fill="none" xmlns="http://www.w3.org/2000/svg">
<path d="M8.1419 20.5854C6.46635 20.0866 4.9749 19.1604 3.79393 17.9333C4.2345 17.4111 4.5 16.7365 4.5 15.9998C4.5 14.343 3.15685 12.9998 1.5 12.9998C1.39977 12.9998 1.3007 13.0048 1.203 13.0144C1.0699 12.3636 1 11.6899 1 10.9998C1 9.95451 1.16039 8.94666 1.4579 7.99951C1.47191 7.99971 1.48594 7.99981 1.5 7.99981C3.15685 7.99981 4.5 6.65666 4.5 4.99981C4.5 4.52416 4.3893 4.07441 4.1923 3.67481C5.34875 2.59951 6.76025 1.79477 8.32605 1.36133C8.8222 2.33385 9.83335 2.99982 11 2.99982C12.1667 2.99982 13.1778 2.33385 13.674 1.36133C15.2398 1.79477 16.6512 2.59951 17.8077 3.67481C17.6107 4.07441 17.5 4.52416 17.5 4.99981C17.5 6.65666 18.8432 7.99981 20.5 7.99981C20.5141 7.99981 20.5281 7.99971 20.5421 7.99951C20.8396 8.94666 21 9.95451 21 10.9998C21 11.6899 20.9301 12.3636 20.797 13.0144C20.6993 13.0048 20.6002 12.9998 20.5 12.9998C18.8432 12.9998 17.5 14.343 17.5 15.9998C17.5 16.7365 17.7655 17.4111 18.2061 17.9333C17.0251 19.1604 15.5336 20.0866 13.8581 20.5854C13.4714 19.3758 12.338 18.4998 11 18.4998C9.662 18.4998 8.5286 19.3758 8.1419 20.5854Z" stroke="#4F0C8C" stroke-width="1.5"/>
</svg>
