<svg width="16" height="16" viewBox="0 0 16 16" fill="none" xmlns="http://www.w3.org/2000/svg">
<path fill-rule="evenodd" clip-rule="evenodd" d="M8.19946 15C8.17703 15 8.15531 15 8.13289 14.9993C6.17499 14.9825 4.34673 14.1985 2.98658 12.7923C0.409922 10.129 0.329336 5.72128 2.80579 2.96693C3.57731 2.10807 4.51912 1.46201 5.60458 1.04693C5.86035 0.947533 6.15117 1.00913 6.34668 1.20232C6.54218 1.39481 6.60735 1.68389 6.51275 1.94148C5.72931 4.07987 6.26329 6.49894 7.87291 8.10396C9.48323 9.70898 11.9113 10.2416 14.0591 9.46049C14.317 9.36529 14.6071 9.43249 14.7991 9.62708C14.9911 9.82377 15.0521 10.1136 14.9533 10.369C14.5861 11.3231 14.0353 12.17 13.3163 12.8861C11.9478 14.251 10.1328 15 8.19946 15Z" fill="#8E9AA0" fill-opacity="0.04"/>
<path d="M8.19946 15C8.17703 15 8.15531 15 8.13289 14.9993C6.17499 14.9825 4.34673 14.1985 2.98658 12.7923C0.409922 10.129 0.329336 5.72128 2.80579 2.96693C3.57731 2.10807 4.51912 1.46201 5.60458 1.04693C5.86035 0.947533 6.15117 1.00913 6.34668 1.20232C6.54218 1.39481 6.60735 1.68389 6.51275 1.94148C5.72931 4.07987 6.26329 6.49894 7.87291 8.10396C9.48323 9.70898 11.9113 10.2416 14.0591 9.46049C14.317 9.36529 14.6071 9.43249 14.7991 9.62708C14.9911 9.82377 15.0521 10.1136 14.9533 10.369C14.5861 11.3231 14.0353 12.17 13.3163 12.8861C11.9478 14.251 10.1328 15 8.19946 15" stroke="white" stroke-opacity="0.5"/>
</svg>
