<svg width="19" height="19" viewBox="0 0 19 19" fill="none" xmlns="http://www.w3.org/2000/svg">
<path d="M9.5 5.5C11.7091 5.5 13.5 7.29086 13.5 9.5C13.5 11.7091 11.7091 13.5 9.5 13.5C7.29086 13.5 5.5 11.7091 5.5 9.5C5.5 7.29086 7.29086 5.5 9.5 5.5Z" fill="#4F0C8C" fill-opacity="0.04" stroke="white"/>
<path d="M9.49935 18.177C9.06393 18.177 8.70768 17.8524 8.70768 17.417V17.3537C8.70768 16.9182 9.06393 16.562 9.49935 16.562C9.93476 16.562 10.291 16.9182 10.291 17.3537C10.291 17.7891 9.93476 18.177 9.49935 18.177ZM15.1518 15.9445C14.946 15.9445 14.7481 15.8653 14.5898 15.7149L14.4868 15.612C14.1781 15.3032 14.1781 14.8045 14.4868 14.4957C14.7956 14.187 15.2943 14.187 15.6031 14.4957L15.706 14.5987C16.0148 14.9074 16.0148 15.4062 15.706 15.7149C15.5556 15.8653 15.3577 15.9445 15.1518 15.9445ZM3.84685 15.9445C3.64102 15.9445 3.4431 15.8653 3.28477 15.7149C2.97602 15.4062 2.97602 14.9074 3.28477 14.5987L3.38768 14.4957C3.69643 14.187 4.19518 14.187 4.50393 14.4957C4.81268 14.8045 4.81268 15.3032 4.50393 15.612L4.40102 15.7149C4.2506 15.8653 4.04477 15.9445 3.84685 15.9445ZM17.416 10.292H17.3527C16.9173 10.292 16.561 9.93574 16.561 9.50033C16.561 9.06491 16.9173 8.70866 17.3527 8.70866C17.7881 8.70866 18.176 9.06491 18.176 9.50033C18.176 9.93574 17.8514 10.292 17.416 10.292ZM1.64602 10.292H1.58268C1.14727 10.292 0.791016 9.93574 0.791016 9.50033C0.791016 9.06491 1.14727 8.70866 1.58268 8.70866C2.0181 8.70866 2.40602 9.06491 2.40602 9.50033C2.40602 9.93574 2.08143 10.292 1.64602 10.292ZM15.0489 4.74241C14.8431 4.74241 14.6452 4.66324 14.4868 4.51283C14.1781 4.20408 14.1781 3.70533 14.4868 3.39658L14.5898 3.29366C14.8985 2.98491 15.3973 2.98491 15.706 3.29366C16.0148 3.60241 16.0148 4.10116 15.706 4.40991L15.6031 4.51283C15.4527 4.66324 15.2548 4.74241 15.0489 4.74241ZM3.94977 4.74241C3.74393 4.74241 3.54602 4.66324 3.38768 4.51283L3.28477 4.40199C2.97602 4.09324 2.97602 3.59449 3.28477 3.28574C3.59352 2.97699 4.09227 2.97699 4.40102 3.28574L4.50393 3.38866C4.81268 3.69741 4.81268 4.19616 4.50393 4.50491C4.35352 4.66324 4.14768 4.74241 3.94977 4.74241ZM9.49935 2.40699C9.06393 2.40699 8.70768 2.08241 8.70768 1.64699V1.58366C8.70768 1.14824 9.06393 0.791992 9.49935 0.791992C9.93476 0.791992 10.291 1.14824 10.291 1.58366C10.291 2.01908 9.93476 2.40699 9.49935 2.40699Z" fill="white"/>
</svg>
