<svg width="21" height="21" viewBox="0 0 21 21" fill="none" xmlns="http://www.w3.org/2000/svg">
<rect width="21" height="21" fill="white"/>
<path d="M8.23856 6.4834H4.23856C3.93546 6.4834 3.64477 6.60381 3.43044 6.81813C3.21611 7.03246 3.0957 7.32315 3.0957 7.62626V16.7691C3.0957 17.0722 3.21611 17.3629 3.43044 17.5772C3.64477 17.7916 3.93546 17.912 4.23856 17.912H14.5243C15.1555 17.912 15.6671 17.4003 15.6671 16.7691V12.1977" stroke="#4F0C8C" stroke-width="1.25" stroke-linecap="round" stroke-linejoin="round"/>
<path d="M3.0957 9.34082H10.5243" stroke="#4F0C8C" stroke-width="1.25" stroke-linecap="round" stroke-linejoin="round"/>
<path d="M5.95117 15.0545L7.66546 13.3403L5.95117 11.626" stroke="#4F0C8C" stroke-width="1.25" stroke-linecap="round" stroke-linejoin="round"/>
<path d="M9.38086 15.0547H11.0951" stroke="#4F0C8C" stroke-width="1.25" stroke-linecap="round" stroke-linejoin="round"/>
<path d="M10.9531 7.0124C10.5521 6.94263 10.5521 6.36689 10.9531 6.29711C12.4061 6.04434 13.5618 4.93763 13.8771 3.49694L13.9013 3.38651C13.9881 2.99013 14.5525 2.98766 14.6427 3.38327L14.6721 3.51197C14.9991 4.94586 16.1551 6.04321 17.604 6.29529C18.0071 6.36542 18.0071 6.9441 17.604 7.01423C16.1551 7.26631 14.9991 8.36366 14.6721 9.79755L14.6427 9.92625C14.5525 10.3219 13.9881 10.3194 13.9013 9.92301L13.8771 9.81258C13.5618 8.37189 12.4061 7.26518 10.9531 7.0124Z" stroke="#4F0C8C" stroke-width="1.25" stroke-linecap="round" stroke-linejoin="round"/>
</svg>
