<svg width="12" height="12" viewBox="0 0 12 12" fill="none" xmlns="http://www.w3.org/2000/svg">
<path d="M3.43254 2.01422C3.43465 2.28569 3.32987 2.54708 3.14084 2.74193C2.95181 2.93678 2.69371 3.04943 2.4223 3.05554C2.15146 3.0456 1.89479 2.932 1.70533 2.7382C1.51587 2.5444 1.4081 2.28522 1.4043 2.01422C1.41607 1.75019 1.5278 1.50052 1.71684 1.31581C1.90587 1.1311 2.15807 1.02519 2.4223 1.01953C2.68576 1.02529 2.93707 1.13147 3.12485 1.31636C3.31263 1.50125 3.42269 1.75088 3.43254 2.01422ZM1.51309 4.90505C1.51309 4.30668 1.89387 4.39993 2.4223 4.39993C2.95073 4.39993 3.32374 4.30668 3.32374 4.90505V10.7333C3.32374 11.3395 2.94296 11.2151 2.4223 11.2151C1.90164 11.2151 1.51309 11.3395 1.51309 10.7333V4.90505Z" fill="white"/>
<path d="M4.89258 4.90517C4.89258 4.57102 5.01691 4.44668 5.21119 4.40782C5.40547 4.36897 6.07377 4.40782 6.30691 4.40782C6.54004 4.40782 6.63329 4.7886 6.62552 5.07613C6.82494 4.80849 7.0897 4.5965 7.39447 4.46044C7.69925 4.32438 8.03384 4.26881 8.36623 4.29903C8.69263 4.27907 9.01958 4.32801 9.32584 4.44266C9.63209 4.55731 9.91081 4.73511 10.1439 4.9645C10.3769 5.19389 10.5591 5.46975 10.6786 5.77415C10.7981 6.07855 10.8522 6.40468 10.8374 6.73136V10.7101C10.8374 11.3163 10.4644 11.1919 9.93598 11.1919C9.40755 11.1919 9.03454 11.3163 9.03454 10.7101V7.60172C9.0482 7.44174 9.02727 7.28069 8.97318 7.12952C8.91909 6.97834 8.8331 6.84057 8.72105 6.72557C8.609 6.61057 8.47351 6.52103 8.32379 6.46304C8.17407 6.40504 8.01362 6.37994 7.85334 6.38944C7.6938 6.38539 7.53522 6.41527 7.3881 6.47711C7.24098 6.53895 7.10868 6.63133 6.99994 6.74815C6.89121 6.86496 6.80853 7.00354 6.75738 7.15471C6.70623 7.30588 6.68777 7.46619 6.70323 7.62503V10.7334C6.70323 11.3396 6.32245 11.2152 5.79402 11.2152C5.26559 11.2152 4.89258 11.3396 4.89258 10.7334V4.90517Z" fill="white"/>
</svg>
