<svg width="32" height="33" viewBox="0 0 32 33" fill="none" xmlns="http://www.w3.org/2000/svg">
<rect y="0.5" width="32" height="32" rx="16" fill="white"/>
<path d="M21.7361 9.5C22.1708 9.5 22.5876 9.67267 22.895 9.98002C23.2023 10.2874 23.375 10.7042 23.375 11.1389V22.6111C23.375 23.0458 23.2023 23.4626 22.895 23.77C22.5876 24.0773 22.1708 24.25 21.7361 24.25H10.2639C9.82923 24.25 9.41237 24.0773 9.10502 23.77C8.79767 23.4626 8.625 23.0458 8.625 22.6111V11.1389C8.625 10.7042 8.79767 10.2874 9.10502 9.98002C9.41237 9.67267 9.82923 9.5 10.2639 9.5H21.7361ZM21.3264 22.2014V17.8583C21.3264 17.1498 21.0449 16.4704 20.544 15.9694C20.043 15.4684 19.3635 15.1869 18.655 15.1869C17.9585 15.1869 17.1472 15.6131 16.7539 16.2522V15.3426H14.4676V22.2014H16.7539V18.1615C16.7539 17.5306 17.2619 17.0143 17.8929 17.0143C18.1972 17.0143 18.489 17.1352 18.7041 17.3503C18.9193 17.5655 19.0401 17.8573 19.0401 18.1615V22.2014H21.3264ZM11.8044 14.0561C12.1696 14.0561 12.5197 13.9111 12.7779 13.6529C13.0361 13.3947 13.1811 13.0446 13.1811 12.6794C13.1811 11.9174 12.5665 11.2946 11.8044 11.2946C11.4372 11.2946 11.0849 11.4405 10.8252 11.7002C10.5655 11.9599 10.4196 12.3122 10.4196 12.6794C10.4196 13.4415 11.0424 14.0561 11.8044 14.0561ZM12.9435 22.2014V15.3426H10.6736V22.2014H12.9435Z" fill="#4F008C"/>
</svg>
