<svg width="24" height="24" viewBox="0 0 24 24" fill="none" xmlns="http://www.w3.org/2000/svg">
<path d="M6.5 17.5H3.5V20.5" stroke="#4F0C8C" stroke-width="1.5" stroke-linecap="round"/>
<path d="M20.5 20.5H17.5V17.5" stroke="#4F0C8C" stroke-width="1.5" stroke-linecap="round"/>
<path d="M17.5 6.5H20.5V3.5" stroke="#4F0C8C" stroke-width="1.5" stroke-linecap="round"/>
<path d="M3.5 3.5H6.5V6.5" stroke="#4F0C8C" stroke-width="1.5" stroke-linecap="round"/>
<path d="M6.5 3.64746C3.78889 5.43619 2 8.50939 2 12.0004C2 12.5102 2.03815 13.0111 2.11175 13.5004" stroke="#4F0C8C" stroke-width="1.5" stroke-linecap="round"/>
<path d="M13.4995 21.8883C13.0102 21.9619 12.5093 22 11.9995 22C8.50841 22 5.43521 20.2111 3.64648 17.5" stroke="#4F0C8C" stroke-width="1.5" stroke-linecap="round"/>
<path d="M21.8883 10.5C21.9619 10.9893 22 11.4902 22 12C22 15.4911 20.2111 18.5643 17.5 20.353" stroke="#4F0C8C" stroke-width="1.5" stroke-linecap="round"/>
<path d="M10.5 2.11175C10.9893 2.03815 11.4902 2 12 2C15.4911 2 18.5643 3.78889 20.353 6.5" stroke="#4F0C8C" stroke-width="1.5" stroke-linecap="round"/>
</svg>
