<svg width="24" height="25" viewBox="0 0 24 25" fill="none" xmlns="http://www.w3.org/2000/svg">
<path d="M5.15333 2.92969C4.58223 2.92969 4.03453 3.15066 3.6307 3.544C3.22687 3.93734 3 4.47082 3 5.02709C3 5.58336 3.22687 6.11684 3.6307 6.51018C4.03453 6.90352 4.58223 7.12449 5.15333 7.12449C5.72443 7.12449 6.27214 6.90352 6.67597 6.51018C7.0798 6.11684 7.30667 5.58336 7.30667 5.02709C7.30667 4.47082 7.0798 3.93734 6.67597 3.544C6.27214 3.15066 5.72443 2.92969 5.15333 2.92969ZM3.12667 8.85177C3.09307 8.85177 3.06085 8.86476 3.0371 8.8879C3.01335 8.91104 3 8.94242 3 8.97514V21.8063C3 21.8744 3.05675 21.9297 3.12667 21.9297H7.18C7.21359 21.9297 7.24581 21.9167 7.26957 21.8936C7.29332 21.8704 7.30667 21.839 7.30667 21.8063V8.97514C7.30667 8.94242 7.29332 8.91104 7.26957 8.8879C7.24581 8.86476 7.21359 8.85177 7.18 8.85177H3.12667ZM9.71333 8.85177C9.67974 8.85177 9.64752 8.86476 9.62377 8.8879C9.60001 8.91104 9.58667 8.94242 9.58667 8.97514V21.8063C9.58667 21.8744 9.64341 21.9297 9.71333 21.9297H13.7667C13.8003 21.9297 13.8325 21.9167 13.8562 21.8936C13.88 21.8704 13.8933 21.839 13.8933 21.8063V14.8972C13.8933 14.4064 14.0935 13.9357 14.4498 13.5886C14.8061 13.2415 15.2894 13.0466 15.7933 13.0466C16.2972 13.0466 16.7805 13.2415 17.1368 13.5886C17.4932 13.9357 17.6933 14.4064 17.6933 14.8972V21.8063C17.6933 21.8744 17.7501 21.9297 17.82 21.9297H21.8733C21.9069 21.9297 21.9391 21.9167 21.9629 21.8936C21.9867 21.8704 22 21.839 22 21.8063V13.2983C22 10.9028 19.8619 9.02943 17.4147 9.24558C16.6575 9.31272 15.9158 9.49524 15.2167 9.78647L13.8933 10.3392V8.97514C13.8933 8.94242 13.88 8.91104 13.8562 8.8879C13.8325 8.86476 13.8003 8.85177 13.7667 8.85177H9.71333Z" fill="#1C1B21"/>
</svg>
