<svg width="32" height="33" viewBox="0 0 32 33" fill="none" xmlns="http://www.w3.org/2000/svg">
<rect y="0.5" width="32" height="32" rx="16" fill="white"/>
<path d="M14.6 19.3571L18.233 17L14.6 14.6429V19.3571ZM22.692 13.205C22.783 13.5743 22.846 14.0693 22.888 14.6979C22.937 15.3264 22.958 15.8686 22.958 16.34L23 17C23 18.7207 22.888 19.9857 22.692 20.795C22.517 21.5021 22.111 21.9579 21.481 22.1543C21.152 22.2564 20.55 22.3271 19.626 22.3743C18.716 22.4293 17.883 22.4529 17.113 22.4529L16 22.5C13.067 22.5 11.24 22.3743 10.519 22.1543C9.889 21.9579 9.483 21.5021 9.308 20.795C9.217 20.4257 9.154 19.9307 9.112 19.3021C9.063 18.6736 9.042 18.1314 9.042 17.66L9 17C9 15.2793 9.112 14.0143 9.308 13.205C9.483 12.4979 9.889 12.0421 10.519 11.8457C10.848 11.7436 11.45 11.6729 12.374 11.6257C13.284 11.5707 14.117 11.5471 14.887 11.5471L16 11.5C18.933 11.5 20.76 11.6257 21.481 11.8457C22.111 12.0421 22.517 12.4979 22.692 13.205Z" fill="#4F008C"/>
</svg>
